<svg xmlns="http://www.w3.org/2000/svg" width="50.877" height="45.82" viewBox="0 0 50.877 45.82">
  <g id="tick-mark" transform="translate(-0.134 -1.91)">
    <g id="bg" transform="translate(0.134 1.91)">
      <g id="Group_170" data-name="Group 170">
        <path id="Path_301" data-name="Path 301" d="M49.643,28.174c-5.385-8.246-4.813-16.7-7.409-20.672S31.9-3.324,13.624,8.615-.006,33.533,2.851,37.9C16.218,58.367,59.181,42.777,49.643,28.174Z" transform="translate(-0.134 -1.91)" fill="#efefef"/>
      </g>
    </g>
    <g id="color" transform="translate(9.554 8.802)">
      <g id="Group_171" data-name="Group 171">
        <circle id="Ellipse_64" data-name="Ellipse 64" cx="16.019" cy="16.019" r="16.019"/>
      </g>
      <g id="Group_173" data-name="Group 173" transform="translate(28.122 30.97)">
        <path id="Path_303" data-name="Path 303" d="M28.636,32.772a2.136,2.136,0,1,1,2.136-2.136A2.138,2.138,0,0,1,28.636,32.772Zm0-2.848a.712.712,0,1,0,.712.712A.712.712,0,0,0,28.636,29.924Z" transform="translate(-26.5 -28.5)" fill="#6c757e"/>
      </g>
    </g>
    <g id="regular" transform="translate(8.486 7.734)">
      <g id="Group_174" data-name="Group 174">
        <path id="Path_304" data-name="Path 304" d="M23.087,40.174A17.087,17.087,0,1,1,40.174,23.087,17.106,17.106,0,0,1,23.087,40.174Zm0-32.038A14.951,14.951,0,1,0,38.038,23.087,14.967,14.967,0,0,0,23.087,8.136Z" transform="translate(-6 -6)" fill="#6c757e"/>
      </g>
      <g id="user_1_" data-name="user (1)" transform="translate(10.69 9.392)">
        <path id="Path_408" data-name="Path 408" d="M88.473,6.29a3.141,3.141,0,1,1,3.141-3.141A3.145,3.145,0,0,1,88.473,6.29Zm0-5.34a2.2,2.2,0,1,0,2.2,2.2,2.2,2.2,0,0,0-2.2-2.2Zm0,0" transform="translate(-82.819)" fill="#fff" stroke="#fff" stroke-width="0.2"/>
        <path id="Path_409" data-name="Path 409" d="M10.837,261.662H.471A.471.471,0,0,1,0,261.191v-2.2a2.988,2.988,0,0,1,2.984-2.984h5.34a2.988,2.988,0,0,1,2.984,2.984v2.2A.471.471,0,0,1,10.837,261.662ZM.942,260.72h9.424v-1.728a2.044,2.044,0,0,0-2.042-2.042H2.984a2.044,2.044,0,0,0-2.042,2.042Zm0,0" transform="translate(0 -248.461)" fill="#fff" stroke="#fff" stroke-width="0.2"/>
        <path id="Path_410" data-name="Path 410" d="M304.479,187.618h-5.34a.471.471,0,1,1,0-.942h5.34a.471.471,0,0,1,0,.942Zm0,0" transform="translate(-289.873 -181.171)" fill="#fff" stroke="#fff" stroke-width="0.2"/>
        <path id="Path_411" data-name="Path 411" d="M395.143,107.274a.471.471,0,0,1-.333-.8l2.18-2.18-2.18-2.18a.471.471,0,0,1,.667-.667l2.513,2.513a.471.471,0,0,1,0,.667l-2.513,2.513A.468.468,0,0,1,395.143,107.274Zm0,0" transform="translate(-383.049 -98.314)" fill="#fff" stroke="#fff" stroke-width="0.2"/>
      </g>
    </g>
  </g>
</svg>
