<svg xmlns="http://www.w3.org/2000/svg" width="41.839" height="41.839" viewBox="0 0 41.839 41.839">
  <g id="Buy" transform="translate(0)">
    <path id="Buy-2" data-name="Buy" d="M31.69,38.616a3.167,3.167,0,1,1,3.178,3.223A3.21,3.21,0,0,1,31.69,38.616Zm-23.516,0a3.167,3.167,0,1,1,3.176,3.223A3.21,3.21,0,0,1,8.175,38.616ZM11.686,32a5.248,5.248,0,0,1-3.611-1.44A5.472,5.472,0,0,1,6.376,27L4.454,3.732,1.3,3.176A1.6,1.6,0,0,1,1.6,0a1.709,1.709,0,0,1,.241.019L6.826.785a1.606,1.606,0,0,1,1.3,1.452l.4,4.782a1.29,1.29,0,0,0,1.275,1.2h28.23a3.532,3.532,0,0,1,2.948,1.431,4.708,4.708,0,0,1,.795,3.67l-1.986,14A5.4,5.4,0,0,1,34.492,32Zm12.1-14.281a1.586,1.586,0,0,0,1.568,1.6h5.79a1.586,1.586,0,0,0,1.568-1.6,1.569,1.569,0,0,0-1.568-1.6h-5.79A1.569,1.569,0,0,0,23.788,17.715Z" transform="translate(0)" fill="#e2e2e2"/>
  </g>
</svg>
