<svg xmlns="http://www.w3.org/2000/svg" width="128" height="128" viewBox="0 0 128 128">
  <circle id="Ellipse_408" data-name="Ellipse 408" cx="64" cy="64" r="64" fill="#f5f5f5"/>
  <g id="chat_2_" data-name="chat (2)" transform="translate(37.933 38.069)">
    <path id="Path_38189" data-name="Path 38189" d="M48.15,2.525l-29.1-.06A5.059,5.059,0,0,0,14,7.519v2.662l22.213-.046a6.767,6.767,0,0,1,6.762,6.757V34.91a6.752,6.752,0,0,1-.191,1.568l2.969,3.267a.851.851,0,0,0,.631.279.836.836,0,0,0,.307-.057.851.851,0,0,0,.545-.8V30.649h.912A5.059,5.059,0,0,0,53.2,25.6V7.578A5.059,5.059,0,0,0,48.15,2.525Z" transform="translate(-2.069 0)" fill="#ccc"/>
    <path id="Path_38190" data-name="Path 38190" d="M34.148,13.465l-29.094.06A5.059,5.059,0,0,0,0,18.578V36.6a5.059,5.059,0,0,0,5.053,5.054h5.174v8.522a.853.853,0,0,0,.545.8.854.854,0,0,0,.938-.222l8.27-9.1,14.169-.058A5.059,5.059,0,0,0,39.2,36.535V18.518A5.059,5.059,0,0,0,34.148,13.465ZM10.227,31.348a3.409,3.409,0,1,1,3.409-3.409A3.412,3.412,0,0,1,10.227,31.348Zm9.374,0a3.409,3.409,0,1,1,3.409-3.409A3.412,3.412,0,0,1,19.6,31.348Zm9.374,0a3.409,3.409,0,1,1,3.409-3.409A3.412,3.412,0,0,1,28.976,31.348Z" transform="translate(0 -1.626)" fill="#707070"/>
  </g>
</svg>
