<svg xmlns="http://www.w3.org/2000/svg" width="128" height="128" viewBox="0 0 128 128">
  <circle id="Ellipse_394" data-name="Ellipse 394" cx="64" cy="64" r="64" fill="#f5f5f5"/>
  <g id="like" transform="translate(35.933 60.434)">
    <path id="Path_38080" data-name="Path 38080" d="M39.754,30a12.816,12.816,0,0,0-8,2.767A18.234,18.234,0,0,0,27.067,38.4a18.232,18.232,0,0,0-4.683-5.632,12.816,12.816,0,0,0-8-2.767C6.182,30,0,36.705,0,45.6,0,55.2,7.712,61.775,19.387,71.724c1.983,1.69,4.23,3.6,6.566,5.647a1.692,1.692,0,0,0,2.227,0c2.336-2.043,4.583-3.958,6.567-5.649C46.421,61.775,54.133,55.2,54.133,45.6,54.133,36.705,47.952,30,39.754,30Z" transform="translate(2 -48.329)" fill="#ccc"/>
    <path id="Path_38080-2" data-name="Path 38080" d="M22.129,30a7.134,7.134,0,0,0-4.456,1.54,10.15,10.15,0,0,0-2.607,3.135A10.149,10.149,0,0,0,12.46,31.54,7.134,7.134,0,0,0,8,30c-4.563,0-8,3.732-8,8.682,0,5.347,4.293,9.006,10.792,14.544,1.1.941,2.355,2.007,3.655,3.144a.942.942,0,0,0,1.24,0c1.3-1.137,2.551-2.2,3.655-3.144,6.5-5.538,10.791-9.2,10.791-14.543C30.133,33.732,26.692,30,22.129,30Z" transform="translate(0 -30)" fill="#707070"/>
  </g>
</svg>
