<svg xmlns="http://www.w3.org/2000/svg" width="40.839" height="37.435" viewBox="0 0 40.839 37.435">
  <g id="wallet" transform="translate(0 -1)">
    <path id="Path_38194" data-name="Path 38194" d="M24.038,7.822,20.425,1.633a1.275,1.275,0,0,0-1.758-.453L7.624,7.806Z" transform="translate(5.349 0)" fill="#e2e2e2"/>
    <path id="Path_38195" data-name="Path 38195" d="M5.1,8.806a1.7,1.7,0,0,1,0-3.4h5.734L16.523,2H5.1A5.1,5.1,0,0,0,.085,6.254,1.715,1.715,0,0,0,0,6.679v25.95a5.12,5.12,0,0,0,5.1,5.1H34.032a3.413,3.413,0,0,0,3.4-3.4v-3.4H33.181a7.657,7.657,0,1,1,0-15.314h4.254v-3.4a3.413,3.413,0,0,0-3.4-3.4ZM32.331,5.4a3.4,3.4,0,0,0-2.944-3.369L32.331,7.1Z" transform="translate(0 0.701)" fill="#e2e2e2"/>
    <path id="Path_38196" data-name="Path 38196" d="M27.986,11.5H21.6a5.1,5.1,0,0,0,0,10.21h6.381a1.277,1.277,0,0,0,1.276-1.276V12.776A1.277,1.277,0,0,0,27.986,11.5ZM21.6,18.306a1.7,1.7,0,1,1,1.7-1.7A1.7,1.7,0,0,1,21.6,18.306Z" transform="translate(11.577 7.367)" fill="#e2e2e2"/>
  </g>
</svg>
