<svg xmlns="http://www.w3.org/2000/svg" width="8.975" height="5.301" viewBox="0 0 8.975 5.301">
  <g id="down-arrow" transform="translate(0 -100.698)">
    <g id="Group_35922" data-name="Group 35922" transform="translate(0 100.698)">
      <path id="Path_1" data-name="Path 1" d="M8.832,101.141l-.294-.3a.492.492,0,0,0-.694,0L4.49,104.2l-3.358-3.358a.492.492,0,0,0-.694,0l-.294.294a.491.491,0,0,0,0,.694l4,4.012a.5.5,0,0,0,.348.157h0a.5.5,0,0,0,.347-.157l3.994-4a.5.5,0,0,0,0-.7Z" transform="translate(0 -100.698)"/>
    </g>
  </g>
</svg>
