<svg xmlns="http://www.w3.org/2000/svg" width="36.917" height="36.918" viewBox="0 0 36.917 36.918">
  <g id="user_5_" data-name="user (5)" transform="translate(0 0)">
    <path id="Path_38242" data-name="Path 38242" d="M15.829,31.372l-5.508,3A4.95,4.95,0,0,0,9.437,35a18.447,18.447,0,0,0,23.7.061,4.886,4.886,0,0,0-.971-.651l-5.9-2.949a2.249,2.249,0,0,1-1.243-2.012V27.141a8.908,8.908,0,0,0,.558-.717,13.571,13.571,0,0,0,1.833-3.695,1.852,1.852,0,0,0,1.314-1.762V18.5a1.844,1.844,0,0,0-.617-1.369V13.558S28.848,8,21.323,8s-6.792,5.557-6.792,5.557v3.571a1.841,1.841,0,0,0-.617,1.369v2.47a1.852,1.852,0,0,0,.854,1.554A12.257,12.257,0,0,0,17,27.141V29.4A2.251,2.251,0,0,1,15.829,31.372Z" transform="translate(-2.863 -2.428)" fill="#e7eced"/>
    <g id="Group_36234" data-name="Group 36234" transform="translate(0 0)">
      <path id="Path_38243" data-name="Path 38243" d="M18.775,0A18.448,18.448,0,0,0,6.581,32.572a4.9,4.9,0,0,1,.876-.623l5.508-3a2.25,2.25,0,0,0,1.172-1.975V24.713a12.246,12.246,0,0,1-2.233-4.62,1.853,1.853,0,0,1-.854-1.554v-2.47a1.844,1.844,0,0,1,.617-1.369V11.129s-.733-5.557,6.792-5.557,6.792,5.557,6.792,5.557V14.7a1.841,1.841,0,0,1,.617,1.369v2.47A1.852,1.852,0,0,1,24.553,20.3,13.571,13.571,0,0,1,22.72,24a8.908,8.908,0,0,1-.558.717v2.314a2.248,2.248,0,0,0,1.243,2.012l5.9,2.949a4.911,4.911,0,0,1,.968.649A18.455,18.455,0,0,0,18.775,0Z" transform="translate(0 0)" fill="#2d3447"/>
    </g>
  </g>
</svg>
