<svg xmlns="http://www.w3.org/2000/svg" width="14" height="14" viewBox="0 0 14 14">
  <g id="Chat" transform="translate(-0.128 -0.128)">
    <path id="Chat-2" data-name="Chat" d="M7,14a6.968,6.968,0,0,1-3.444-.911,1.539,1.539,0,0,0-.775-.3.849.849,0,0,0-.268.044L1.1,13.257a.528.528,0,0,1-.158.025.434.434,0,0,1-.35-.167.453.453,0,0,1-.066-.4L.994,11.14a.732.732,0,0,0-.049-.631A7.4,7.4,0,0,1,0,7.011,7.11,7.11,0,0,1,1.982,2.123,6.923,6.923,0,0,1,7.014,0,6.906,6.906,0,0,1,12,2.1a7.04,7.04,0,0,1,1.47,2.228A6.923,6.923,0,0,1,14,6.989a7.1,7.1,0,0,1-.606,2.92A6.719,6.719,0,0,1,11.8,12.117,7.171,7.171,0,0,1,7,14Zm3.213-7.879a.9.9,0,1,0,.9.9A.9.9,0,0,0,10.213,6.121Zm-3.24,0a.887.887,0,0,0-.882.89.9.9,0,1,0,.9-.89H6.973Zm-3.213,0a.9.9,0,1,0,.9.9A.9.9,0,0,0,3.759,6.121Z" transform="translate(0.128 0.128)"/>
  </g>
</svg>
