<svg id="Arrow_-_Up" data-name="Arrow - Up" xmlns="http://www.w3.org/2000/svg" width="15" height="18" viewBox="0 0 15 18">
  <path id="Arrow_-_Up-2" data-name="Arrow - Up" d="M6.676.715l-.006.1V17.182a.818.818,0,0,0,.513.756A.841.841,0,0,0,8,17.832l.083-.073,6.671-6.6a.81.81,0,0,0,0-1.156.839.839,0,0,0-1.09-.071L13.581,10,8.33,15.2V.818a.831.831,0,0,0-1.654-.1ZM.244,10a.81.81,0,0,0-.077,1.073l.075.085L3.92,14.8a.841.841,0,0,0,1.175,0,.808.808,0,0,0,.077-1.073L5.1,13.645,1.418,10A.839.839,0,0,0,.244,10Z" transform="translate(0)" fill="#fff"/>
</svg>
