<svg xmlns="http://www.w3.org/2000/svg" width="22.618" height="19.968" viewBox="0 0 22.618 19.968">
  <path id="Path_38080" data-name="Path 38080" d="M16.61,30a5.355,5.355,0,0,0-3.344,1.156,7.618,7.618,0,0,0-1.957,2.353,7.618,7.618,0,0,0-1.957-2.353A5.355,5.355,0,0,0,6.008,30C2.583,30,0,32.8,0,36.517c0,4.014,3.222,6.76,8.1,10.917.828.706,1.767,1.506,2.743,2.36a.707.707,0,0,0,.931,0c.976-.854,1.915-1.654,2.744-2.36,4.878-4.157,8.1-6.9,8.1-10.916C22.618,32.8,20.035,30,16.61,30Z" transform="translate(0 -30)"/>
</svg>
