<svg xmlns="http://www.w3.org/2000/svg" width="18" height="14.949" viewBox="0 0 18 14.949">
  <g id="Arrow_-_Left" data-name="Arrow - Left" transform="translate(18 5) rotate(90)">
    <path id="Arrow_-_Left-2" data-name="Arrow - Left" d="M7.248,17.969h0l-.011,0-.01,0-.005,0-.014,0h0a.829.829,0,0,1-.314-.195h0l-6.647-6.6A.811.811,0,0,1,.244,10a.834.834,0,0,1,1.077-.077L1.413,10l5.234,5.2V.818A.828.828,0,0,1,8.295.707L8.3.818V15.2L13.535,10a.835.835,0,0,1,1.171,0,.811.811,0,0,1,.083,1.065l-.08.092-6.646,6.6a.836.836,0,0,1-.813.209Z" transform="translate(-5)" fill="#fff"/>
  </g>
</svg>
