<svg xmlns="http://www.w3.org/2000/svg" width="16.465" height="13.704" viewBox="0 0 16.465 13.704">
  <g id="heart" transform="translate(0 -5.697)">
    <path id="Path_38079" data-name="Path 38079" d="M15.142,7.04a4.6,4.6,0,0,0-6.494,0l-.416.416L7.817,7.04a4.6,4.6,0,0,0-6.494,0A4.644,4.644,0,0,0,1.3,13.507c1.586,1.762,6.263,5.57,6.462,5.731a.724.724,0,0,0,.458.163h.016a.7.7,0,0,0,.474-.163c.2-.161,4.876-3.969,6.463-5.731A4.645,4.645,0,0,0,15.142,7.04Zm-1.054,5.494a77.5,77.5,0,0,1-5.856,5.212,77.337,77.337,0,0,1-5.855-5.212,3.209,3.209,0,0,1-.026-4.466,3.141,3.141,0,0,1,4.438,0l.914.914a.7.7,0,0,0,.39.2.728.728,0,0,0,.669-.2l.914-.914a3.142,3.142,0,0,1,4.438,0A3.21,3.21,0,0,1,14.088,12.534Z" transform="translate(0 0)"/>
  </g>
</svg>
