<svg id="download" xmlns="http://www.w3.org/2000/svg" width="22.078" height="21.72" viewBox="0 0 22.078 21.72">
  <path id="Path_38262" data-name="Path 38262" d="M11.519,12.879a.684.684,0,0,1-.488-.2L6.2,7.847A.69.69,0,0,1,6.69,6.669H9.22V1.15A1.151,1.151,0,0,1,10.37,0h2.3a1.151,1.151,0,0,1,1.15,1.15V6.669h2.53a.69.69,0,0,1,.488,1.177l-4.83,4.83a.684.684,0,0,1-.488.2Z" transform="translate(-0.481)"/>
  <path id="Path_38263" data-name="Path 38263" d="M10.119,20.788,0,16.15v2.162a.459.459,0,0,0,.277.421l9.842,4.279Z" transform="translate(0 -1.293)"/>
  <path id="Path_38264" data-name="Path 38264" d="M13,20.788v2.225l9.842-4.279a.461.461,0,0,0,.277-.422V16.15Z" transform="translate(-1.041 -1.293)"/>
  <path id="Path_38265" data-name="Path 38265" d="M16.173,11.558,12.828,14.9a2.528,2.528,0,0,1-3.578,0L5.906,11.558,0,14.264l11.039,5.06,11.039-5.06Z" transform="translate(0 -0.926)"/>
</svg>
