<svg id="Location" xmlns="http://www.w3.org/2000/svg" width="12.129" height="14.269" viewBox="0 0 12.129 14.269">
  <path id="Location-2" data-name="Location" d="M6.067,14.269a.969.969,0,0,1-.524-.177,15.348,15.348,0,0,1-3.953-3.668A7.409,7.409,0,0,1,0,5.934a5.828,5.828,0,0,1,1.786-4.2A6.086,6.086,0,0,1,6.06,0a6.01,6.01,0,0,1,6.069,5.934,7.413,7.413,0,0,1-1.591,4.49,15.639,15.639,0,0,1-3.953,3.668A.941.941,0,0,1,6.067,14.269ZM6.06,4.122a2,2,0,0,0-2,2,1.935,1.935,0,0,0,.586,1.394A2.014,2.014,0,0,0,8.066,6.119a2.015,2.015,0,0,0-2.007-2Z" transform="translate(0)"/>
</svg>
