<svg xmlns="http://www.w3.org/2000/svg" width="16.988" height="17.239" viewBox="0 0 16.988 17.239">
  <g id="menu_2_" data-name="menu (2)" transform="translate(-3.45 0.2)">
    <g id="Group_36255" data-name="Group 36255" transform="translate(3.65 0)">
      <path id="Path_38246" data-name="Path 38246" d="M140.745,7.132a.717.717,0,0,0,1,.034L144.715,4.2a.692.692,0,0,0,0-1L141.746.227a.7.7,0,0,0-1-.034l-2.969,2.969a.692.692,0,0,0,0,1Zm.5-5.439L143.215,3.7l-1.968,1.968L139.28,3.7Z" transform="translate(-132.955 0)" fill="#04944f" stroke="#fff" stroke-width="0.4"/>
      <path id="Path_38247" data-name="Path 38247" d="M141.846,275.927a.7.7,0,0,0-1-.034l-2.969,2.969a.692.692,0,0,0,0,1l2.969,2.969a.717.717,0,0,0,1,.034l2.969-2.969a.692.692,0,0,0,0-1Zm-.5,5.443-1.968-1.968,1.968-2.006,1.968,2.006Z" transform="translate(-133.051 -266.215)" fill="#04944f" stroke="#fff" stroke-width="0.4"/>
      <path id="Path_38248" data-name="Path 38248" d="M279.211,140.779l-2.969-2.973a.692.692,0,0,0-1,0l-2.969,2.969a.717.717,0,0,0-.034,1l2.969,2.969a.692.692,0,0,0,1,0l2.969-2.969A.7.7,0,0,0,279.211,140.779Zm-3.506,2.47-1.968-1.968,1.968-1.968,2.006,1.968Z" transform="translate(-262.816 -132.858)" fill="#04944f" stroke="#fff" stroke-width="0.4"/>
      <path id="Path_38249" data-name="Path 38249" d="M10.811,140.779l-2.969-2.973a.692.692,0,0,0-1,0l-2.969,2.969a.717.717,0,0,0-.034,1l2.969,2.969a.692.692,0,0,0,1,0l2.969-2.969A.7.7,0,0,0,10.811,140.779Zm-3.506,2.47-1.968-1.968,1.968-1.968,2.006,1.968Z" transform="translate(-3.65 -132.858)" fill="#04944f" stroke="#fff" stroke-width="0.4"/>
    </g>
  </g>
</svg>
