<svg xmlns="http://www.w3.org/2000/svg" width="19.177" height="20.775" viewBox="0 0 19.177 20.775">
  <path id="icons8-home" d="M23.845,24.775H19.051a1.332,1.332,0,0,1-1.332-1.332V18.649a1.065,1.065,0,0,0-1.065-1.065H14.523a1.065,1.065,0,0,0-1.065,1.065v4.794a1.332,1.332,0,0,1-1.332,1.332H7.332A1.332,1.332,0,0,1,6,23.444V13.276a4,4,0,0,1,1.523-3.139l7.571-5.966a.8.8,0,0,1,.989,0l7.572,5.966a4,4,0,0,1,1.522,3.138V23.444A1.332,1.332,0,0,1,23.845,24.775Z" transform="translate(-6 -4)" 
  />
</svg>
