<svg xmlns="http://www.w3.org/2000/svg" width="15.826" height="16.745" viewBox="0 0 15.826 16.745">
  <g id="Delete" transform="translate(0)">
    <path id="Path_35" data-name="Path 35" d="M19.249-511.689a1.177,1.177,0,0,0-.739.6,2.847,2.847,0,0,0-.134,1.253v.729H14.591l-.144.075a.668.668,0,0,0,.052,1.2,1.591,1.591,0,0,0,.674.062h.546l.02.17c.01.095.239,2.7.507,5.783s.5,5.711.523,5.833a1.144,1.144,0,0,0,.824.958c.262.069,8.564.069,8.826,0a1.142,1.142,0,0,0,.821-.939c.02-.114.255-2.741.523-5.836s.5-5.7.51-5.8l.02-.17h.546a1.591,1.591,0,0,0,.674-.062.668.668,0,0,0,.052-1.2l-.144-.075H25.638v-.729a2.847,2.847,0,0,0-.134-1.253,1.241,1.241,0,0,0-.546-.53l-.186-.088-2.7-.007C20.561-511.718,19.318-511.705,19.249-511.689Zm5.015,1.959v.621H19.75v-1.243h4.514Zm2.65,2.028c0,.033-.219,2.578-.491,5.649s-.491,5.613-.491,5.643c0,.056-.193.059-3.925.059-3.752,0-3.925,0-3.925-.059,0-.033-.219-2.574-.491-5.649s-.491-5.617-.491-5.649c0-.056.209-.059,4.907-.059C26.864-507.767,26.913-507.767,26.913-507.7Z"
     transform="translate(-14.094 511.715)"
     fill="red"/>
  </g>
</svg>
