<svg xmlns="http://www.w3.org/2000/svg" width="12.472" height="13.195" viewBox="0 0 12.472 13.195">
  <g id="Delete" transform="translate(0)">
    <path id="Path_35" data-name="Path 35" d="M18.156-511.694a.928.928,0,0,0-.583.472,2.244,2.244,0,0,0-.106.987v.575H14.486l-.113.059a.527.527,0,0,0,.041.949,1.253,1.253,0,0,0,.531.049h.43l.015.134c.008.075.188,2.127.4,4.557s.4,4.5.412,4.6a.9.9,0,0,0,.65.755c.206.054,6.749.054,6.955,0a.9.9,0,0,0,.647-.74c.015-.09.2-2.16.412-4.6s.394-4.5.4-4.57l.015-.134h.43a1.253,1.253,0,0,0,.531-.049.527.527,0,0,0,.041-.949l-.113-.059H23.191v-.575a2.244,2.244,0,0,0-.106-.987.978.978,0,0,0-.43-.418l-.147-.07-2.127-.005C19.19-511.718,18.21-511.707,18.156-511.694Zm3.952,1.544v.49H18.551v-.979h3.557Zm2.088,1.6c0,.026-.173,2.031-.387,4.452s-.387,4.423-.387,4.447a17.9,17.9,0,0,1-3.093.046,17.66,17.66,0,0,1-3.093-.046c0-.026-.173-2.029-.387-4.452s-.387-4.426-.387-4.452a27.422,27.422,0,0,1,3.867-.046C24.157-508.6,24.2-508.6,24.2-508.552Z" transform="translate(-14.094 511.715)" fill="#6c757e"/>
  </g>
</svg>
