<svg xmlns="http://www.w3.org/2000/svg" width="15.677" height="15.676" viewBox="0 0 15.677 15.676">
  <g id="cancel" transform="translate(0 -0.005)">
    <g id="Group_35985" data-name="Group 35985" transform="translate(0 0.005)">
      <path id="Path_38085" data-name="Path 38085" d="M13.383,2.3a7.838,7.838,0,1,0,0,11.09A7.851,7.851,0,0,0,13.383,2.3Zm-2.311,7.856a.653.653,0,1,1-.924.924L7.839,8.767l-2.309,2.31a.653.653,0,0,1-.924-.924l2.309-2.31L4.6,5.533a.653.653,0,0,1,.924-.924l2.31,2.31,2.31-2.31a.653.653,0,1,1,.924.924l-2.31,2.31Z" transform="translate(0 -0.005)"/>
    </g>
  </g>
</svg>
