<svg id="Group_36209" data-name="Group 36209" xmlns="http://www.w3.org/2000/svg" width="30.54" height="29.133" viewBox="0 0 30.54 29.133">
  <path id="Path_38230" data-name="Path 38230" d="M30.5,22.856a.9.9,0,0,0-.722-.609l-9.467-1.376-4.234-8.579a.895.895,0,0,0-1.6,0l-4.234,8.579L.766,22.247a.895.895,0,0,0-.5,1.526l6.85,6.678L5.5,39.881a.895.895,0,0,0,1.3.943l8.468-4.452,8.468,4.452a.895.895,0,0,0,1.3-.943l-1.617-9.429,6.851-6.678A.9.9,0,0,0,30.5,22.856ZM21.833,29.5a.894.894,0,0,0-.257.792l1.39,8.106-7.279-3.827a.9.9,0,0,0-.833,0L7.574,38.4l1.39-8.106a.9.9,0,0,0-.257-.792L2.818,23.758l8.139-1.183a.9.9,0,0,0,.674-.489l3.64-7.375,3.64,7.375a.9.9,0,0,0,.674.489l8.139,1.183Z"
   transform="translate(0 -11.794)"/>
</svg>
