<svg xmlns="http://www.w3.org/2000/svg" width="30.54" height="29.133" viewBox="0 0 30.54 29.133">
  <g id="star_5_" data-name="star (5)" transform="translate(0 0)">
    <path id="Path_38229" data-name="Path 38229" d="M30.5,22.858a.894.894,0,0,0-.722-.609l-9.468-1.376-4.234-8.579a.895.895,0,0,0-1.6,0l-4.234,8.579L.766,22.25a.895.895,0,0,0-.5,1.526l6.851,6.678L5.5,39.883a.895.895,0,0,0,1.3.943l8.468-4.452,8.468,4.452a.895.895,0,0,0,1.3-.943l-1.617-9.429,6.851-6.678A.894.894,0,0,0,30.5,22.858Z" transform="translate(0 -11.796)"/>
  </g>
</svg>
