<svg id="Group_36208" data-name="Group 36208" xmlns="http://www.w3.org/2000/svg" width="19.526" height="21.32" viewBox="0 0 19.526 21.32">
  <path id="Path_38228" data-name="Path 38228" d="M35.225,8.813h-.053V7.52a7.52,7.52,0,1,0-15.04,0V8.813h-.317a2.149,2.149,0,0,0-2.058,2.216v3.3a2.085,2.085,0,0,0,2.031,2.137h1.98a.5.5,0,0,0,.477-.524c0-.01,0-.02,0-.03V9.446c0-.317-.185-.633-.475-.633h-.58V7.52a6.465,6.465,0,0,1,12.929,0V8.813h-.581c-.29,0-.475.317-.475.633v6.465a.5.5,0,0,0,.445.552l.03,0h.607l-.053.079a4.169,4.169,0,0,1-3.351,1.662,2.612,2.612,0,0,0-5.172.5,2.639,2.639,0,0,0,2.639,2.612,2.718,2.718,0,0,0,1.9-.818,2.322,2.322,0,0,0,.633-1.267,5.224,5.224,0,0,0,4.2-2.084l.5-.739a1.8,1.8,0,0,0,1.847-1.821v-3.3A2.4,2.4,0,0,0,35.225,8.813Zm-14.037,6.6H19.815a1.029,1.029,0,0,1-1-1.054c0-.009,0-.019,0-.028v-3.3a1.094,1.094,0,0,1,1-1.161h1.372Zm8.153,4.354a1.557,1.557,0,0,1-1.135.5,1.61,1.61,0,0,1-1.583-1.557,1.557,1.557,0,1,1,3.114,0h0A1.4,1.4,0,0,1,29.341,19.763Zm6.887-5.172c0,.712-.686.818-1,.818H34.116V9.868h1.108c.58,0,1,.818,1,1.425Z" transform="translate(-17.756)"/>
</svg>
