<svg xmlns="http://www.w3.org/2000/svg" width="66.345" height="52.313" viewBox="0 0 66.345 52.313">
  <g id="_1853078101582962142" data-name="1853078101582962142" transform="translate(0)">
    <path id="Path_38112" data-name="Path 38112" d="M81.593,20.642V18.688a2.739,2.739,0,0,0-2.739-2.739H49.532a2.739,2.739,0,0,0-2.739,2.739v1.955Z" transform="translate(-22.986 -15.948)" fill="#04944f"/>
    <path id="Path_38113" data-name="Path 38113" d="M46.792,31.237V42.792a2.739,2.739,0,0,0,2.739,2.739H78.854a2.739,2.739,0,0,0,2.739-2.739V31.237ZM79,42.015a.933.933,0,0,1-.933.933H70.59a.933.933,0,0,1-.933-.933V39.829a.933.933,0,0,1,.933-.933h7.48a.933.933,0,0,1,.933.933Z" transform="translate(-22.986 -22.915)" fill="#04944f"/>
    <path id="Path_38114" data-name="Path 38114" d="M75.846,74.49C67.94,79.653,49.9,89.836,49.9,89.836l-.04.023a11.779,11.779,0,0,1-8.424,1.25c-.294-.052-18.281-2.253-20.945-2.577l-.074-1.658V67.006c1.425-.13,4.117-.24,4.416-.259,7.672-.5,15.067,1.27,22.538,2.739a3.363,3.363,0,0,1,2.713,3.3,3.1,3.1,0,0,1-.025.4,3.361,3.361,0,0,1-3.339,2.964H33.335a1.064,1.064,0,0,0-1.095,1.03,1.021,1.021,0,0,0,.493.862.847.847,0,0,0,.529.187h11.81c.363-.025,2.456-.066,3.892-.144a8.777,8.777,0,0,0,1.955-.333l1.792-.518,20.109-8.441a3.238,3.238,0,0,1,3.025,5.7Z" transform="translate(-10.967 -39.056)" fill="#202020"/>
    <rect id="Rectangle_1520" data-name="Rectangle 1520" width="7.251" height="23.857" transform="translate(0 25.632)" fill="#04944f"/>
  </g>
</svg>
