<svg xmlns="http://www.w3.org/2000/svg" width="57.593" height="56.287" viewBox="0 0 57.593 56.287">
  <g id="_10944815131582884277" data-name="10944815131582884277" transform="translate(0)">
    <rect id="Rectangle_1517" data-name="Rectangle 1517" width="39.829" height="25.668" transform="translate(2.717 27.207)" fill="#202020"/>
    <ellipse id="Ellipse_395" data-name="Ellipse 395" cx="5.854" cy="5.854" rx="5.854" ry="5.854" transform="translate(13.503 34.51)" fill="#04944f" stroke="#fff" stroke-width="1.5"/>
    <path id="Path_38104" data-name="Path 38104" d="M57.232,77.816a5.8,5.8,0,0,0-2.084.386,7.683,7.683,0,0,1,1.232,1.574,3.847,3.847,0,0,1,.852-.093,3.987,3.987,0,1,1,0,7.975,3.847,3.847,0,0,1-.852-.093,7.683,7.683,0,0,1-1.232,1.574,5.8,5.8,0,0,0,2.084.386,5.854,5.854,0,1,0,0-11.707Z" transform="translate(-28.661 -43.305)" fill="#04944f"/>
    <path id="Path_38105" data-name="Path 38105" d="M40.2,55.969H9.01a7.494,7.494,0,0,0-7.485,7.485V80.33a7.494,7.494,0,0,0,7.485,7.485H40.2a7.494,7.494,0,0,0,7.485-7.485V63.454A7.494,7.494,0,0,0,40.2,55.969ZM43.93,80.33A3.738,3.738,0,0,1,40.2,84.063H9.01A3.738,3.738,0,0,1,5.276,80.33V63.454A3.738,3.738,0,0,1,9.01,59.72H40.2a3.738,3.738,0,0,1,3.734,3.734Z" transform="translate(-1.524 -31.528)" fill="#202020"/>
    <path id="Path_38106" data-name="Path 38106" d="M63.971,7.479,33.1,3.019a7.493,7.493,0,0,0-8.478,6.337l-2.2,15.213h3.791l1.077-7.457L65.553,22.64l-1.371,9.482a3.735,3.735,0,0,1-2.42,2.976v3.866a7.5,7.5,0,0,0,6.133-6.3l2.413-16.7A7.493,7.493,0,0,0,63.971,7.479Zm2.624,7.942-.208,1.444L28.128,11.337l.21-1.444a3.738,3.738,0,0,1,4.228-3.161l30.866,4.46a3.74,3.74,0,0,1,3.162,4.231Z" transform="translate(-12.792 -2.943)" fill="#04944f"/>
  </g>
</svg>
