<svg xmlns="http://www.w3.org/2000/svg" width="158.604" height="152.777" viewBox="0 0 158.604 152.777">
  <g id="success" transform="translate(0 -3.086)">
    <path id="Path_38232" data-name="Path 38232" d="M81.868,31.164a52.868,52.868,0,1,0,52.868,52.868A52.868,52.868,0,0,0,81.868,31.164Zm0,101.96A49.092,49.092,0,1,1,130.96,84.032a49.092,49.092,0,0,1-49.092,49.092Z" transform="translate(-1.622 -1.57)" fill="#04944f"/>
    <path id="Path_38233" data-name="Path 38233" d="M111.985,61.706,67.3,105.674,54.256,91.96a1.889,1.889,0,1,0-2.736,2.6l14.372,15.105a1.888,1.888,0,0,0,1.337.586h.031a1.888,1.888,0,0,0,1.324-.542L114.633,64.4a1.888,1.888,0,1,0-2.648-2.692Z" transform="translate(-2.852 -3.248)"/>
    <path id="Path_38234" data-name="Path 38234" d="M143.13,138.9H101.158a60.421,60.421,0,1,0-42.033,0H17.151a1.9,1.9,0,1,0,0,3.776H143.13a1.9,1.9,0,1,0,0-3.776ZM23.5,82.253A56.644,56.644,0,1,1,80.141,138.9,56.644,56.644,0,0,1,23.5,82.253ZM84.389,16.876a2.832,2.832,0,1,0-2.832-2.832,2.832,2.832,0,0,0,2.832,2.832Zm0-4.248a1.416,1.416,0,1,1-1.416,1.416,1.416,1.416,0,0,1,1.416-1.416Zm65.9,51.688a1.888,1.888,0,1,0,1.888,1.888A1.888,1.888,0,0,0,150.29,64.315Zm0,2.832a.944.944,0,1,1,.944-.944.944.944,0,0,1-.944.944ZM123.568,3.58a1.888,1.888,0,1,0,1.888,1.888,1.888,1.888,0,0,0-1.888-1.888Zm0,2.832a.944.944,0,1,1,.944-.944.944.944,0,0,1-.944.944Zm29.581,8.182a1.888,1.888,0,1,0,1.888,1.888,1.888,1.888,0,0,0-1.888-1.888Zm0,2.832a.944.944,0,1,1,.944-.944.944.944,0,0,1-.944.944ZM29.449,29.07a1.888,1.888,0,1,0-1.888,1.888,1.888,1.888,0,0,0,1.888-1.888Zm-2.832,0a.944.944,0,1,1,.944.944.944.944,0,0,1-.944-.944Z" transform="translate(-0.839 -0.028)"/>
    <path id="Path_38235" data-name="Path 38235" d="M10.709,67.786l1.4-1.847-.886-.5-.9,2.068H10.3L9.38,65.452l-.9.516,1.389,1.8V67.8L7.695,67.52v1l2.186-.28v.029l-1.4,1.8.841.532.961-2.084h.029l.886,2.068.931-.532-1.418-1.773v-.03l2.23.266v-1l-2.23.3Z" transform="translate(-0.43 -3.487)" fill="#04944f"/>
    <path id="Path_38236" data-name="Path 38236" d="M12.087,6.141l-.808,1.038.484.307.553-1.2h.017l.511,1.191.536-.307L12.564,6.15V6.133l1.284.153V5.707l-1.284.171V5.861L13.372,4.8l-.511-.289L12.343,5.7h-.018L11.8,4.516l-.519.3.8,1.038v.017l-1.251-.162v.579l1.259-.161Z" transform="translate(-0.606 -0.08)" fill="#04944f"/>
    <path id="Path_38237" data-name="Path 38237" d="M65,6.115V5.129l-2.187.29V5.39l1.376-1.811-.869-.493-.884,2.029h-.029l-.9-2.015-.885.508,1.362,1.767V5.4l-2.131-.276v.986L62,5.839v.029L60.624,7.635l.826.522.942-2.043h.028l.869,2.028.913-.521L62.813,5.882V5.853Z" transform="translate(-3.348 0)" fill="#04944f"/>
    <path id="Path_38238" data-name="Path 38238" d="M138.707,35.721l1.188-1.562-.751-.425-.762,1.749h-.025l-.774-1.737-.764.437,1.175,1.526v.025l-1.837-.238v.85l1.849-.237v.025l-1.188,1.524.713.45.813-1.763h.025l.75,1.75.788-.45-1.2-1.5v-.025l1.886.225V35.5l-1.886.25Z" transform="translate(-7.615 -1.714)" fill="#04944f"/>
    <circle id="Ellipse_415" data-name="Ellipse 415" cx="1.888" cy="1.888" r="1.888" transform="translate(0 138.87)" fill="#2d4356"/>
    <path id="Path_38239" data-name="Path 38239" d="M10.72,146.914H7.888a1.888,1.888,0,1,0,0,3.776H10.72a1.888,1.888,0,1,0,0-3.776Zm140.667,0h-2.832a1.888,1.888,0,1,0,0,3.776h2.832a1.888,1.888,0,1,0,0-3.776Z" transform="translate(-0.336 -8.044)" fill="#2d4356"/>
    <circle id="Ellipse_416" data-name="Ellipse 416" cx="1.888" cy="1.888" r="1.888" transform="translate(154.828 138.87)" fill="#2d4356"/>
    <path id="Path_38240" data-name="Path 38240" d="M114.23,154.914h-7.843a1.894,1.894,0,0,0,0,3.776h7.843a1.894,1.894,0,0,0,0-3.776Zm-56.644,0H49.743a1.894,1.894,0,0,0,0,3.776h7.843a1.894,1.894,0,0,0,0-3.776Zm43.282,0H63.105a1.888,1.888,0,0,0,0,3.776H78.154v1.888h-7.5a1.888,1.888,0,0,0,0,3.776h23.6a1.888,1.888,0,0,0,0-3.776H85.82V158.69h15.049a1.888,1.888,0,0,0,0-3.776Z" transform="translate(-2.685 -8.492)" fill="#04944f"/>
  </g>
</svg>
