<svg xmlns="http://www.w3.org/2000/svg" width="47.299" height="54.3" viewBox="0 0 47.299 54.3">
  <g id="_1017280091582962144" data-name="1017280091582962144" transform="translate(0)">
    <path id="Path_38107" data-name="Path 38107" d="M108.558,34.31a1.383,1.383,0,0,0-1.386-1.386H101.16V35.7h6.012a1.386,1.386,0,0,0,1.386-1.386Z" transform="translate(-61.259 -19.364)" fill="#2d3e50"/>
    <path id="Path_38108" data-name="Path 38108" d="M16.208,42.72a3.515,3.515,0,0,1-3.446-2.837A3.3,3.3,0,0,1,12.7,39.2a3.589,3.589,0,0,1,3.587-3.5h1.039V32.924H16.311a6.38,6.38,0,0,0-6.388,6.339c.008.78,0,3.227,0,3.8V70.459a3.214,3.214,0,0,0,3.205,3.205h40.89a3.214,3.214,0,0,0,3.2-3.205V63.5H43.549a6.74,6.74,0,1,1,.1-13.479H57.222V43.066a3.367,3.367,0,0,0-.018-.346Z" transform="translate(-9.923 -19.364)" fill="#202020"/>
    <path id="Path_38109" data-name="Path 38109" d="M75.362,80.993A5.013,5.013,0,0,0,80.369,86H94.043V75.987H80.369A5.012,5.012,0,0,0,75.362,80.993ZM83.618,79.7a1.355,1.355,0,0,1,0,2.71h-3.01a1.355,1.355,0,1,1,0-2.71Z" transform="translate(-46.743 -43.595)" fill="#04944f"/>
    <path id="Path_38110" data-name="Path 38110" d="M37.627,1.919H35.192a3.414,3.414,0,0,0-3.414,3.414V22.858h5.849Z" transform="translate(-22.22 -1.919)" fill="#04944f"/>
    <path id="Path_38111" data-name="Path 38111" d="M73.3,5.333a3.414,3.414,0,0,0-3.413-3.414h-14.4V22.858H73.3Zm-3.22,10.3a1.162,1.162,0,0,1-1.162,1.162H66.2a1.162,1.162,0,0,1-1.163-1.162V6.308A1.162,1.162,0,0,1,66.2,5.147h2.724a1.162,1.162,0,0,1,1.162,1.162Z" transform="translate(-35.564 -1.919)" fill="#04944f"/>
  </g>
</svg>
