<svg xmlns="http://www.w3.org/2000/svg" width="40" height="40" viewBox="0 0 40 40">
  <g id="Group_36235" data-name="Group 36235" transform="translate(-211 -300)">
    <g id="approved" transform="translate(211 300)">
      <path id="Path_38166" data-name="Path 38166" d="M32.5,40H7.5A7.5,7.5,0,0,1,0,32.5V7.5A7.5,7.5,0,0,1,7.5,0h25A7.5,7.5,0,0,1,40,7.5v25A7.5,7.5,0,0,1,32.5,40Z" fill="#ababab" opacity="0.1"/>
    </g>
    <g id="Group_36094" data-name="Group 36094" transform="translate(211.008 300.013)">
      <path id="Path_38179" data-name="Path 38179" d="M24.868,20.089a2.145,2.145,0,0,0-1.641-.759H21.8a5.077,5.077,0,0,0,.15-1.184c0-1.475-.816-2.15-1.575-2.15-1.191,0-1.191,1.241-1.191,1.766a1.813,1.813,0,0,1-.7,1.216,2.091,2.091,0,0,1,.225.934v4.834a2.115,2.115,0,0,1-.109.659A9.088,9.088,0,0,0,22.085,26h.7A2.141,2.141,0,0,0,24.9,24.212l.441-2.384a2.123,2.123,0,0,0-.475-1.74Z" transform="translate(4.621 3.999)" fill="#686868" opacity="0.4"/>
      <path id="Path_38180" data-name="Path 38180" d="M17.248,25.464A1.25,1.25,0,0,1,16,24.214V19.378a1.25,1.25,0,0,1,2.5,0v4.836A1.25,1.25,0,0,1,17.248,25.464Z" transform="translate(4 4.532)" fill="#686868" opacity="0.4"/>
      <g id="Group_36093" data-name="Group 36093" transform="translate(9.989 9.979)">
        <path id="Path_38181" data-name="Path 38181" d="M15.632,8l-4.05.016a1.45,1.45,0,0,0-1.266.75L8.2,12.6l7.025-.016Z" transform="translate(-7.939 -7.98)" fill="#686868"/>
        <path id="Path_38182" data-name="Path 38182" d="M22.611,12.567,20.47,8.733a1.464,1.464,0,0,0-1.275-.75L15.145,8l.425,4.584Z" transform="translate(-6.202 -7.983)" fill="#686868"/>
        <path id="Path_38183" data-name="Path 38183" d="M24.666,15.668a3.041,3.041,0,0,0-1.666-.5,2.764,2.764,0,0,0-2.825,2.825,2.835,2.835,0,0,0-.925-.159,2.919,2.919,0,0,0-2.916,2.916V23.5l-6.991.025H9.333a1.318,1.318,0,0,1-1.309-1.316l-.034-9.525,7.709-.016h1.25l7.709-.025Z" transform="translate(-7.991 -6.818)" fill="#686868"/>
      </g>
    </g>
  </g>
</svg>
