<svg xmlns="http://www.w3.org/2000/svg" width="40" height="40" viewBox="0 0 40 40">
  <g id="Group_36243" data-name="Group 36243" transform="translate(-27 -300)">
    <g id="delivery" transform="translate(35 317)" opacity="0.1">
      <path id="Path_38177" data-name="Path 38177" d="M32.5,40H7.5A7.5,7.5,0,0,1,0,32.5V7.5A7.5,7.5,0,0,1,7.5,0h25A7.5,7.5,0,0,1,40,7.5v25A7.5,7.5,0,0,1,32.5,40Z" transform="translate(-8 -17)" fill="#04944f"/>
    </g>
    <path id="Path_38167" data-name="Path 38167" d="M20.755,15.33a5.423,5.423,0,1,0,5.423,5.423A5.43,5.43,0,0,0,20.755,15.33ZM23.106,19.7l-2.712,3.129a.625.625,0,0,1-.451.215H19.92a.627.627,0,0,1-.443-.183L18.017,21.4a.626.626,0,0,1,.885-.885l.985.985,2.272-2.621a.626.626,0,0,1,.947.82Z" transform="translate(30.84 303.845)" fill="#04944f" opacity="0.4"/>
    <g id="Group_36091" data-name="Group 36091" transform="translate(36.982 309.979)">
      <path id="Path_38168" data-name="Path 38168" d="M15.641,8l-4.055.016a1.452,1.452,0,0,0-1.268.751L8.2,12.6l7.034-.016Z" transform="translate(-7.937 -7.979)" fill="#04944f"/>
      <path id="Path_38169" data-name="Path 38169" d="M22.621,12.573,20.477,8.734A1.466,1.466,0,0,0,19.2,7.983L15.145,8l.426,4.59Z" transform="translate(-6.19 -7.983)" fill="#04944f"/>
      <path id="Path_38170" data-name="Path 38170" d="M24.689,14.646a7.173,7.173,0,0,0-2.086-.309,7.1,7.1,0,0,0-7.093,7.093,6.975,6.975,0,0,0,.317,2.094l-6.483.016H9.334a1.32,1.32,0,0,1-1.31-1.318L7.99,12.684l7.719-.016H16.96l7.719-.025Z" transform="translate(-7.99 -6.811)" fill="#04944f"/>
    </g>
  </g>
</svg>
