<svg id="payment" xmlns="http://www.w3.org/2000/svg" width="40.022" height="40.022" viewBox="0 0 40.022 40.022">
  <path id="Path_38172" data-name="Path 38172" d="M32.518,40.022H7.5a7.5,7.5,0,0,1-7.5-7.5V7.5A7.5,7.5,0,0,1,7.5,0H32.518a7.5,7.5,0,0,1,7.5,7.5V32.518A7.5,7.5,0,0,1,32.518,40.022Z" fill="#04944f" opacity="0.1"/>
  <path id="Path_38173" data-name="Path 38173" d="M22.086,20.171h-.835a.417.417,0,0,1,0-.834h2.087a.835.835,0,0,0,0-1.67h-.824v-.835a.835.835,0,0,0-1.67,0v.877a2.087,2.087,0,0,0,.408,4.133h.835a.417.417,0,0,1,0,.834H20a.835.835,0,1,0,0,1.67h.845v.835a.835.835,0,0,0,1.67,0V24.3a2.088,2.088,0,0,0-.429-4.131Z" transform="translate(5.441 4.022)" fill="#04944f" opacity="0.4"/>
  <g id="Group_36092" data-name="Group 36092" transform="translate(10.406 9.985)">
    <path id="Path_38174" data-name="Path 38174" d="M15.477,8l-4.057.016a1.453,1.453,0,0,0-1.268.751L8.032,12.6l7.037-.016Z" transform="translate(-7.772 -7.979)" fill="#04944f"/>
    <path id="Path_38175" data-name="Path 38175" d="M22.458,12.575l-2.145-3.84a1.467,1.467,0,0,0-1.277-.751L14.979,8l.426,4.592Z" transform="translate(-6.02 -7.983)" fill="#04944f"/>
    <path id="Path_38176" data-name="Path 38176" d="M24.529,15.172a2.508,2.508,0,0,0-2.488,2.3,3.756,3.756,0,0,0-1.687,3.13,3.715,3.715,0,0,0,.635,2.087,2.559,2.559,0,0,0-.485.826l-11.327.034H9.169a1.32,1.32,0,0,1-1.311-1.319l-.034-9.541,7.722-.016H16.8l7.722-.025Z" transform="translate(-7.824 -6.808)" fill="#04944f"/>
  </g>
</svg>
