<svg id="fast_2_" data-name="fast (2)" xmlns="http://www.w3.org/2000/svg" width="40" height="40" viewBox="0 0 40 40">
  <path id="Path_38158" data-name="Path 38158" d="M7.5,40h25A7.5,7.5,0,0,0,40,32.5V7.5A7.5,7.5,0,0,0,32.5,0H7.5A7.5,7.5,0,0,0,0,7.5v25A7.5,7.5,0,0,0,7.5,40Z" fill="#04944f" opacity="0.1"/>
  <path id="Path_38159" data-name="Path 38159" d="M18.382,22.093H20.9l.1.509a.626.626,0,0,1-.618.742H18.473a2.285,2.285,0,0,0,.034-.417A2.762,2.762,0,0,0,18.382,22.093Zm-8.91-8.525a.6.6,0,0,1,.484-.234h8.759a.632.632,0,0,1,.617.509l.058.325H17.464a1.457,1.457,0,0,0-.743,2.712,1.45,1.45,0,0,0,0,2.5,1.5,1.5,0,0,0-.592.676,2.881,2.881,0,0,0-.542-.05,2.923,2.923,0,0,0-2.919,2.919,2.276,2.276,0,0,0,.034.417h-.867a.627.627,0,0,1-.609-.492l-1.877-8.76A.6.6,0,0,1,9.473,13.567Z" transform="translate(7.379 0.874)" fill="#04944f"/>
  <path id="Path_38160" data-name="Path 38160" d="M21.8,15.333h1.786a.634.634,0,0,1,.617.492l1.335,6.257a.628.628,0,0,1-.609.76h-.45a2.285,2.285,0,0,0,.034-.417,2.919,2.919,0,1,0-5.839,0,1.467,1.467,0,0,0,.016.267.545.545,0,0,1-.209-.342l-.626-2.919a.715.715,0,0,1-.018-.134A3.966,3.966,0,0,1,21.8,15.333Z" transform="translate(-7.798 1.377)" fill="#04944f"/>
  <g id="Group_36090" data-name="Group 36090" transform="translate(11.704 15.876)" opacity="0.4">
    <path id="Path_38161" data-name="Path 38161" d="M9.957,15.918h2.921a.626.626,0,0,0,0-1.251H9.959a.626.626,0,0,0,0,1.251Z" transform="translate(3.182 -14.667)" fill="#04944f"/>
    <path id="Path_38162" data-name="Path 38162" d="M9.293,17.918h3.754a.626.626,0,0,0,0-1.251H9.293a.626.626,0,0,0,0,1.251Z" transform="translate(3.847 -14.164)" fill="#04944f"/>
    <path id="Path_38163" data-name="Path 38163" d="M8.626,19.918h4.589a.626.626,0,0,0,0-1.251H8.626a.626.626,0,0,0,0,1.251Z" transform="translate(4.514 -13.662)" fill="#04944f"/>
    <path id="Path_38164" data-name="Path 38164" d="M21.419,23.505a2.086,2.086,0,1,0-2.086-2.086A2.088,2.088,0,0,0,21.419,23.505Z" transform="translate(-19.333 -13.494)" fill="#04944f"/>
    <path id="Path_38165" data-name="Path 38165" d="M14.086,23.505A2.086,2.086,0,1,0,12,21.419,2.089,2.089,0,0,0,14.086,23.505Z" transform="translate(-2.824 -13.494)" fill="#04944f"/>
  </g>
</svg>
